<svg xmlns="http://www.w3.org/2000/svg" xmlns:xlink="http://www.w3.org/1999/xlink" version="1.1" x="0px" y="0px" viewBox="0 0 100 100" style="enable-background:new 0 0 100 100;" xml:space="preserve"><g fill="#FFFFFF"><path d="M50,5L50,5C25.1,5,5,25.1,5,50l0,0c0,24.9,20.1,45,45,45h0c24.9,0,45-20.1,45-45l0,0C95,25.1,74.9,5,50,5z M72.9,65.2   c2.1,2.1,2.1,5.5,0,7.6c-1.1,1.1-2.4,1.6-3.8,1.6c-1.4,0-2.8-0.5-3.8-1.6L50.3,57.8L35.2,72.8c-1.1,1.1-2.4,1.6-3.8,1.6   c-1.4,0-2.8-0.5-3.8-1.6c-2.1-2.1-2.1-5.5,0-7.6l15.1-15.1L27.6,35.1c-2.1-2.1-2.1-5.5,0-7.6c2.1-2.1,5.5-2.1,7.6,0l15.1,15.1   l15.1-15.1c2.1-2.1,5.5-2.1,7.6,0c2.1,2.1,2.1,5.5,0,7.6L57.9,50.2L72.9,65.2z"/></g></svg>